<svg xmlns="http://www.w3.org/2000/svg">
  <symbol id="fallback" viewBox="0 0 48 32">
    <rect width="48" height="32" rx="2" fill="#252a31"/>
    <circle cx="24" cy="16" r="9" fill="none" stroke="#737b87" stroke-width="1.5"/>
    <path d="M15 16h18M24 7c3 3 4 6 4 9s-1 6-4 9M24 7c-3 3-4 6-4 9s1 6 4 9" fill="none" stroke="#737b87" stroke-width="1.2"/>
  </symbol>

  <symbol id="arg" viewBox="0 0 48 32">
    <rect width="48" height="32" fill="#74acdf"/><rect y="10.67" width="48" height="10.67" fill="#fff"/><circle cx="24" cy="16" r="2.5" fill="#f6b40e"/>
  </symbol>
  <symbol id="fra" viewBox="0 0 48 32">
    <rect width="16" height="32" fill="#0055a4"/><rect x="16" width="16" height="32" fill="#fff"/><rect x="32" width="16" height="32" fill="#ef4135"/>
  </symbol>
  <symbol id="bra" viewBox="0 0 48 32">
    <rect width="48" height="32" fill="#009c3b"/><path d="M24 4 43 16 24 28 5 16Z" fill="#ffdf00"/><circle cx="24" cy="16" r="7" fill="#002776"/>
  </symbol>
  <symbol id="eng" viewBox="0 0 48 32">
    <rect width="48" height="32" fill="#fff"/><rect x="20" width="8" height="32" fill="#ce1124"/><rect y="12" width="48" height="8" fill="#ce1124"/>
  </symbol>
  <symbol id="esp" viewBox="0 0 48 32">
    <rect width="48" height="32" fill="#aa151b"/><rect y="8" width="48" height="16" fill="#f1bf00"/>
  </symbol>
  <symbol id="ger" viewBox="0 0 48 32">
    <rect width="48" height="10.67" fill="#111"/><rect y="10.67" width="48" height="10.67" fill="#dd0000"/><rect y="21.34" width="48" height="10.66" fill="#ffce00"/>
  </symbol>
  <symbol id="por" viewBox="0 0 48 32">
    <rect width="19" height="32" fill="#046a38"/><rect x="19" width="29" height="32" fill="#da291c"/><circle cx="19" cy="16" r="4" fill="#ffcc29"/>
  </symbol>
  <symbol id="ned" viewBox="0 0 48 32">
    <rect width="48" height="10.67" fill="#ae1c28"/><rect y="10.67" width="48" height="10.67" fill="#fff"/><rect y="21.34" width="48" height="10.66" fill="#21468b"/>
  </symbol>
  <symbol id="aut" viewBox="0 0 48 32">
    <rect width="48" height="10.67" fill="#ed2939"/><rect y="10.67" width="48" height="10.67" fill="#fff"/><rect y="21.34" width="48" height="10.66" fill="#ed2939"/>
  </symbol>
  <symbol id="bel" viewBox="0 0 48 32">
    <rect width="16" height="32" fill="#111"/><rect x="16" width="16" height="32" fill="#fdda24"/><rect x="32" width="16" height="32" fill="#ef3340"/>
  </symbol>
  <symbol id="cro" viewBox="0 0 48 32">
    <rect width="48" height="10.67" fill="#ff0000"/><rect y="10.67" width="48" height="10.67" fill="#fff"/><rect y="21.34" width="48" height="10.66" fill="#171796"/><path d="M20 10h8v8h-8z" fill="#fff"/><path d="M20 10h4v4h-4zm4 4h4v4h-4z" fill="#e00000"/>
  </symbol>
  <symbol id="uru" viewBox="0 0 48 32">
    <rect width="48" height="32" fill="#fff"/><path d="M0 7h48v4H0zm0 8h48v4H0zm0 8h48v4H0" fill="#0038a8"/><rect width="18" height="17" fill="#fff"/><circle cx="8" cy="8" r="3" fill="#fcd116"/>
  </symbol>
  <symbol id="col" viewBox="0 0 48 32">
    <rect width="48" height="16" fill="#fcd116"/><rect y="16" width="48" height="8" fill="#003893"/><rect y="24" width="48" height="8" fill="#ce1126"/>
  </symbol>
  <symbol id="mex" viewBox="0 0 48 32">
    <rect width="16" height="32" fill="#006847"/><rect x="16" width="16" height="32" fill="#fff"/><rect x="32" width="16" height="32" fill="#ce1126"/><circle cx="24" cy="16" r="2.5" fill="#8c6b3f"/>
  </symbol>
  <symbol id="usa" viewBox="0 0 48 32">
    <rect width="48" height="32" fill="#fff"/><path d="M0 0h48v3H0zm0 6h48v3H0zm0 12h48v3H0zm0-6h48v3H0zm0 12h48v3H0zm0 6h48v2H0" fill="#b22234"/><rect width="21" height="17" fill="#3c3b6e"/><g fill="#fff"><circle cx="4" cy="4" r="1"/><circle cx="10" cy="4" r="1"/><circle cx="16" cy="4" r="1"/><circle cx="7" cy="9" r="1"/><circle cx="13" cy="9" r="1"/><circle cx="4" cy="14" r="1"/><circle cx="10" cy="14" r="1"/><circle cx="16" cy="14" r="1"/></g>
  </symbol>
  <symbol id="sui" viewBox="0 0 48 32">
    <rect width="48" height="32" fill="#d52b1e"/><path d="M20 7h8v6h6v7h-6v6h-8v-6h-6v-7h6z" fill="#fff"/>
  </symbol>
  <symbol id="sco" viewBox="0 0 48 32">
    <rect width="48" height="32" fill="#005eb8"/><path d="M-3 0 48 29v5L-3 5zm54 0L0 29v5L51 5z" fill="#fff"/>
  </symbol>
  <symbol id="mar" viewBox="0 0 48 32">
    <rect width="48" height="32" fill="#c1272d"/><path d="m24 9 2 5h6l-5 3 2 6-5-4-5 4 2-6-5-3h6z" fill="none" stroke="#006233" stroke-width="1.3"/>
  </symbol>
  <symbol id="jpn" viewBox="0 0 48 32">
    <rect width="48" height="32" fill="#fff"/><circle cx="24" cy="16" r="8" fill="#bc002d"/>
  </symbol>
  <symbol id="sen" viewBox="0 0 48 32">
    <rect width="16" height="32" fill="#00853f"/><rect x="16" width="16" height="32" fill="#fdef42"/><rect x="32" width="16" height="32" fill="#e31b23"/><path d="m24 10 1.7 4h4.3l-3.5 2.5 1.3 4.2-3.8-2.5-3.8 2.5 1.3-4.2-3.5-2.5h4.3z" fill="#00853f"/>
  </symbol>
  <symbol id="kor" viewBox="0 0 48 32">
    <rect width="48" height="32" fill="#fff"/><path d="M18 16a6 6 0 0 1 12 0c-2-2-4-1-6 0s-4 2-6 0" fill="#cd2e3a"/><path d="M30 16a6 6 0 0 1-12 0c2 2 4 1 6 0s4-2 6 0" fill="#0047a0"/><path d="m8 7 7 4m-8-1 7 4m27-7-7 4m8-1-7 4M8 25l7-4m-8 1 7-4m27 7-7-4m8 1-7-4" stroke="#111" stroke-width="1.5"/>
  </symbol>
  <symbol id="ecu" viewBox="0 0 48 32">
    <rect width="48" height="16" fill="#ffd100"/><rect y="16" width="48" height="8" fill="#034ea2"/><rect y="24" width="48" height="8" fill="#ed1c24"/><circle cx="24" cy="16" r="2.5" fill="#8c6b3f"/>
  </symbol>
  <symbol id="swe" viewBox="0 0 48 32">
    <rect width="48" height="32" fill="#006aa7"/><rect x="14" width="5" height="32" fill="#fecc00"/><rect y="13" width="48" height="6" fill="#fecc00"/>
  </symbol>
  <symbol id="civ" viewBox="0 0 48 32">
    <rect width="16" height="32" fill="#f77f00"/><rect x="16" width="16" height="32" fill="#fff"/><rect x="32" width="16" height="32" fill="#009e60"/>
  </symbol>
  <symbol id="aus" viewBox="0 0 48 32">
    <rect width="48" height="32" fill="#012169"/><path d="M0 0h19v13H0z" fill="#012169"/><path d="M0 0 19 13M19 0 0 13" stroke="#fff" stroke-width="3"/><path d="M9 0v13M0 6.5h19" stroke="#fff" stroke-width="4"/><path d="M9 0v13M0 6.5h19" stroke="#c8102e" stroke-width="2"/><g fill="#fff"><circle cx="32" cy="9" r="2"/><circle cx="39" cy="16" r="2"/><circle cx="29" cy="23" r="2"/><circle cx="41" cy="26" r="1.5"/></g>
  </symbol>
  <symbol id="can" viewBox="0 0 48 32">
    <rect width="12" height="32" fill="#d80621"/><rect x="12" width="24" height="32" fill="#fff"/><rect x="36" width="12" height="32" fill="#d80621"/><path d="m24 7 2 5 4-2-2 5 3 2-5 2 1 6h-6l1-6-5-2 3-2-2-5 4 2z" fill="#d80621"/>
  </symbol>
  <symbol id="uzb" viewBox="0 0 48 32">
    <rect width="48" height="10" fill="#1eb5e9"/><rect y="11" width="48" height="10" fill="#fff"/><rect y="22" width="48" height="10" fill="#1eb53a"/><path d="M0 10h48v1H0zm0 11h48v1H0" fill="#ce1126"/><circle cx="7" cy="5" r="3" fill="#fff"/><circle cx="8" cy="5" r="2.5" fill="#1eb5e9"/>
  </symbol>
  <symbol id="gha" viewBox="0 0 48 32">
    <rect width="48" height="10.67" fill="#ce1126"/><rect y="10.67" width="48" height="10.67" fill="#fcd116"/><rect y="21.34" width="48" height="10.66" fill="#006b3f"/><path d="m24 11 1.6 3.5h3.8l-3 2.3 1.1 3.7-3.5-2-3.5 2 1.1-3.7-3-2.3h3.8z" fill="#111"/>
  </symbol>
  <symbol id="ksa" viewBox="0 0 48 32">
    <rect width="48" height="32" fill="#006c35"/><path d="M13 12h22M16 15h16M14 22h20" stroke="#fff" stroke-width="1.8" stroke-linecap="round"/>
  </symbol>
  <symbol id="qat" viewBox="0 0 48 32">
    <rect width="48" height="32" fill="#8a1538"/><path d="M0 0h15l6 2-6 2 6 2-6 2 6 2-6 2 6 2-6 2 6 2-6 2 6 2-6 2 6 2-6 2 6 2-6 2H0z" fill="#fff"/>
  </symbol>
  <symbol id="jor" viewBox="0 0 48 32">
    <rect width="48" height="10.67" fill="#111"/><rect y="10.67" width="48" height="10.67" fill="#fff"/><rect y="21.34" width="48" height="10.66" fill="#007a3d"/><path d="M0 0 22 16 0 32z" fill="#ce1126"/><circle cx="8" cy="16" r="1.5" fill="#fff"/>
  </symbol>
  <symbol id="nzl" viewBox="0 0 48 32">
    <rect width="48" height="32" fill="#012169"/><path d="M0 0h19v13H0z" fill="#012169"/><path d="M0 0 19 13M19 0 0 13" stroke="#fff" stroke-width="3"/><path d="M9 0v13M0 6.5h19" stroke="#fff" stroke-width="4"/><path d="M9 0v13M0 6.5h19" stroke="#c8102e" stroke-width="2"/><g fill="#cc142b" stroke="#fff" stroke-width="1"><circle cx="32" cy="9" r="2"/><circle cx="39" cy="15" r="2"/><circle cx="31" cy="23" r="2"/><circle cx="42" cy="25" r="2"/></g>
  </symbol>
</svg>
